#Comment line ignore any data following # character 
#Hierarchical Translation and Rotation (.htr) file 
[Header]	
#Header keywords are followed by a single value 
FileType HTR		#Single word string
DataType HTRS		#Translation followed by rotation and scale data
FileVersion 1		#integer
NumSegments 84		#integer
NumFrames 2		#integer
DataFrameRate 30		#integer, data frame rate in this file
EulerRotationOrder ZYX
CalibrationUnits mm
RotationUnits Degrees
GlobalAxisofGravity Y
BoneLengthAxis Y
ScaleFactor 1.00
[SegmentNames&Hierarchy]
#CHILD	PARENT
MASTER GLOBAL
root MASTER
chest root
L_mid_tent01 root
R_mid_tent01 root
spine01 root
Bip01_Neck chest
L_humerus chest
R_humerus chest
weapon_bone chest
Bip01_Head Bip01_Neck
eye_left_bone Bip01_Head
eye_right_bone Bip01_Head
L_forearm L_humerus
L_front_hand L_forearm
L_weapon_bone L_forearm
L_front_hand01_01 L_front_hand
L_front_hand02_01 L_front_hand
L_front_hand03_01 L_front_hand
L_front_hand01_02 L_front_hand01_01
L_front_hand02_02 L_front_hand02_01
L_front_hand03_02 L_front_hand03_01
R_forearm R_humerus
R_front_hand R_forearm
R_weapon_bone R_forearm
R_front_hand01_01 R_front_hand
R_front_hand02_01 R_front_hand
R_front_hand03_01 R_front_hand
R_front_hand01_02 R_front_hand01_01
R_front_hand02_02 R_front_hand02_01
R_front_hand03_02 R_front_hand03_01
null_rope01_connect L_mid_tent01
Rope1_Seg01 null_rope01_connect
Rope1_Seg02 Rope1_Seg01
Rope1_Seg03 Rope1_Seg02
Rope1_Seg04 Rope1_Seg03
Rope1_Seg05 Rope1_Seg04
Rope1_Seg06 Rope1_Seg05
Rope1_Seg07 Rope1_Seg06
Rope1_Seg09 Rope1_Seg07
L_mid_hand01 Rope1_Seg09
L_mid_hand02 Rope1_Seg09
L_mid_hand03 Rope1_Seg09
null_rope02_connect R_mid_tent01
Rope2_Seg01 null_rope02_connect
Rope2_Seg02 Rope2_Seg01
Rope2_Seg03 Rope2_Seg02
Rope2_Seg04 Rope2_Seg03
Rope2_Seg05 Rope2_Seg04
Rope2_Seg06 Rope2_Seg05
Rope2_Seg07 Rope2_Seg06
Rope2_Seg09 Rope2_Seg07
R_mid_hand01 Rope2_Seg09
R_mid_hand02 Rope2_Seg09
R_mid_hand03 Rope2_Seg09
spine02 spine01
spine03 spine02
pelvis spine03
null_rope03_connect pelvis
null_rope04_connect pelvis
Rope3_Seg01 null_rope03_connect
Rope3_Seg02 Rope3_Seg01
Rope3_Seg03 Rope3_Seg02
Rope3_Seg04 Rope3_Seg03
Rope3_Seg05 Rope3_Seg04
Rope3_Seg06 Rope3_Seg05
Rope3_Seg07 Rope3_Seg06
Rope3_Seg08 Rope3_Seg07
Rope3_Seg09 Rope3_Seg08
R_rear_hand01 Rope3_Seg09
R_rear_hand02 Rope3_Seg09
R_rear_hand03 Rope3_Seg09
Rope4_Seg01 null_rope04_connect
Rope4_Seg02 Rope4_Seg01
Rope4_Seg03 Rope4_Seg02
Rope4_Seg04 Rope4_Seg03
Rope4_Seg05 Rope4_Seg04
Rope4_Seg06 Rope4_Seg05
Rope4_Seg07 Rope4_Seg06
Rope4_Seg08 Rope4_Seg07
Rope4_Seg09 Rope4_Seg08
L_rear_hand01 Rope4_Seg09
L_rear_hand02 Rope4_Seg09
L_rear_hand03 Rope4_Seg09
[BasePosition]
#SegmentName Tx, Ty, Tz, Rx, Ry, Rz, BoneLength
MASTER 0.000000 0.000000 0.000000 -90.000000 0.000000 0.000000 10.000000 
root 0.000000 0.000000 0.000000 0.000000 0.000000 0.000000 10.000000 
chest 0.000000 0.000000 0.000000 0.000000 0.000000 0.000000 10.000000 
L_mid_tent01 0.000000 0.000000 0.000000 0.000000 0.000000 0.000000 10.000000 
R_mid_tent01 0.000000 0.000000 0.000000 0.000000 0.000000 0.000000 10.000000 
spine01 0.000000 0.000000 0.000000 0.000000 0.000000 0.000000 10.000000 
Bip01_Neck 0.000000 0.000000 0.000000 0.000000 0.000000 0.000000 10.000000 
L_humerus 0.000000 0.000000 0.000000 0.000000 0.000000 0.000000 10.000000 
R_humerus 0.000000 0.000000 0.000000 0.000000 0.000000 0.000000 10.000000 
weapon_bone 0.000000 0.000000 0.000000 0.000000 0.000000 0.000000 10.000000 
Bip01_Head 0.000000 0.000000 0.000000 0.000000 0.000000 0.000000 10.000000 
eye_left_bone 0.000000 0.000000 0.000000 0.000000 0.000000 0.000000 10.000000 
eye_right_bone 0.000000 0.000000 0.000000 0.000000 0.000000 0.000000 10.000000 
L_forearm 0.000000 0.000000 0.000000 0.000000 0.000000 0.000000 10.000000 
L_front_hand 0.000000 0.000000 0.000000 0.000000 0.000000 0.000000 10.000000 
L_weapon_bone 0.000000 0.000000 0.000000 0.000000 0.000000 0.000000 10.000000 
L_front_hand01_01 0.000000 0.000000 0.000000 0.000000 0.000000 0.000000 10.000000 
L_front_hand02_01 0.000000 0.000000 0.000000 0.000000 0.000000 0.000000 10.000000 
L_front_hand03_01 0.000000 0.000000 0.000000 0.000000 0.000000 0.000000 10.000000 
L_front_hand01_02 0.000000 0.000000 0.000000 0.000000 0.000000 0.000000 10.000000 
L_front_hand02_02 0.000000 0.000000 0.000000 0.000000 0.000000 0.000000 10.000000 
L_front_hand03_02 0.000000 0.000000 0.000000 0.000000 0.000000 0.000000 10.000000 
R_forearm 0.000000 0.000000 0.000000 0.000000 0.000000 0.000000 10.000000 
R_front_hand 0.000000 0.000000 0.000000 0.000000 0.000000 0.000000 10.000000 
R_weapon_bone 0.000000 0.000000 0.000000 0.000000 0.000000 0.000000 10.000000 
R_front_hand01_01 0.000000 0.000000 0.000000 0.000000 0.000000 0.000000 10.000000 
R_front_hand02_01 0.000000 0.000000 0.000000 0.000000 0.000000 0.000000 10.000000 
R_front_hand03_01 0.000000 0.000000 0.000000 0.000000 0.000000 0.000000 10.000000 
R_front_hand01_02 0.000000 0.000000 0.000000 0.000000 0.000000 0.000000 10.000000 
R_front_hand02_02 0.000000 0.000000 0.000000 0.000000 0.000000 0.000000 10.000000 
R_front_hand03_02 0.000000 0.000000 0.000000 0.000000 0.000000 0.000000 10.000000 
null_rope01_connect 0.000000 0.000000 0.000000 0.000000 0.000000 0.000000 10.000000 
Rope1_Seg01 0.000000 0.000000 0.000000 0.000000 0.000000 0.000000 10.000000 
Rope1_Seg02 0.000000 0.000000 0.000000 0.000000 0.000000 0.000000 10.000000 
Rope1_Seg03 0.000000 0.000000 0.000000 0.000000 0.000000 0.000000 10.000000 
Rope1_Seg04 0.000000 0.000000 0.000000 0.000000 0.000000 0.000000 10.000000 
Rope1_Seg05 0.000000 0.000000 0.000000 0.000000 0.000000 0.000000 10.000000 
Rope1_Seg06 0.000000 0.000000 0.000000 0.000000 0.000000 0.000000 10.000000 
Rope1_Seg07 0.000000 0.000000 0.000000 0.000000 0.000000 0.000000 10.000000 
Rope1_Seg09 0.000000 0.000000 0.000000 0.000000 0.000000 0.000000 10.000000 
L_mid_hand01 0.000000 0.000000 0.000000 0.000000 0.000000 0.000000 10.000000 
L_mid_hand02 0.000000 0.000000 0.000000 0.000000 0.000000 0.000000 10.000000 
L_mid_hand03 0.000000 0.000000 0.000000 0.000000 0.000000 0.000000 10.000000 
null_rope02_connect 0.000000 0.000000 0.000000 0.000000 0.000000 0.000000 10.000000 
Rope2_Seg01 0.000000 0.000000 0.000000 0.000000 0.000000 0.000000 10.000000 
Rope2_Seg02 0.000000 0.000000 0.000000 0.000000 0.000000 0.000000 10.000000 
Rope2_Seg03 0.000000 0.000000 0.000000 0.000000 0.000000 0.000000 10.000000 
Rope2_Seg04 0.000000 0.000000 0.000000 0.000000 0.000000 0.000000 10.000000 
Rope2_Seg05 0.000000 0.000000 0.000000 0.000000 0.000000 0.000000 10.000000 
Rope2_Seg06 0.000000 0.000000 0.000000 0.000000 0.000000 0.000000 10.000000 
Rope2_Seg07 0.000000 0.000000 0.000000 0.000000 0.000000 0.000000 10.000000 
Rope2_Seg09 0.000000 0.000000 0.000000 0.000000 0.000000 0.000000 10.000000 
R_mid_hand01 0.000000 0.000000 0.000000 0.000000 0.000000 0.000000 10.000000 
R_mid_hand02 0.000000 0.000000 0.000000 0.000000 0.000000 0.000000 10.000000 
R_mid_hand03 0.000000 0.000000 0.000000 0.000000 0.000000 0.000000 10.000000 
spine02 0.000000 0.000000 0.000000 0.000000 0.000000 0.000000 10.000000 
spine03 0.000000 0.000000 0.000000 0.000000 0.000000 0.000000 10.000000 
pelvis 0.000000 0.000000 0.000000 0.000000 0.000000 0.000000 10.000000 
null_rope03_connect 0.000000 0.000000 0.000000 0.000000 0.000000 0.000000 10.000000 
null_rope04_connect 0.000000 0.000000 0.000000 0.000000 0.000000 0.000000 10.000000 
Rope3_Seg01 0.000000 0.000000 0.000000 0.000000 0.000000 0.000000 10.000000 
Rope3_Seg02 0.000000 0.000000 0.000000 0.000000 0.000000 0.000000 10.000000 
Rope3_Seg03 0.000000 0.000000 0.000000 0.000000 0.000000 0.000000 10.000000 
Rope3_Seg04 0.000000 0.000000 0.000000 0.000000 0.000000 0.000000 10.000000 
Rope3_Seg05 0.000000 0.000000 0.000000 0.000000 0.000000 0.000000 10.000000 
Rope3_Seg06 0.000000 0.000000 0.000000 0.000000 0.000000 0.000000 10.000000 
Rope3_Seg07 0.000000 0.000000 0.000000 0.000000 0.000000 0.000000 10.000000 
Rope3_Seg08 0.000000 0.000000 0.000000 0.000000 0.000000 0.000000 10.000000 
Rope3_Seg09 0.000000 0.000000 0.000000 0.000000 0.000000 0.000000 10.000000 
R_rear_hand01 0.000000 0.000000 0.000000 0.000000 0.000000 0.000000 10.000000 
R_rear_hand02 0.000000 0.000000 0.000000 0.000000 0.000000 0.000000 10.000000 
R_rear_hand03 0.000000 0.000000 0.000000 0.000000 0.000000 0.000000 10.000000 
Rope4_Seg01 0.000000 0.000000 0.000000 0.000000 0.000000 0.000000 10.000000 
Rope4_Seg02 0.000000 0.000000 0.000000 0.000000 0.000000 0.000000 10.000000 
Rope4_Seg03 0.000000 0.000000 0.000000 0.000000 0.000000 0.000000 10.000000 
Rope4_Seg04 0.000000 0.000000 0.000000 0.000000 0.000000 0.000000 10.000000 
Rope4_Seg05 0.000000 0.000000 0.000000 0.000000 0.000000 0.000000 10.000000 
Rope4_Seg06 0.000000 0.000000 0.000000 0.000000 0.000000 0.000000 10.000000 
Rope4_Seg07 0.000000 0.000000 0.000000 0.000000 0.000000 0.000000 10.000000 
Rope4_Seg08 0.000000 0.000000 0.000000 0.000000 0.000000 0.000000 10.000000 
Rope4_Seg09 0.000000 0.000000 0.000000 0.000000 0.000000 0.000000 10.000000 
L_rear_hand01 0.000000 0.000000 0.000000 0.000000 0.000000 0.000000 10.000000 
L_rear_hand02 0.000000 0.000000 0.000000 0.000000 0.000000 0.000000 10.000000 
L_rear_hand03 0.000000 0.000000 0.000000 0.000000 0.000000 0.000000 10.000000 
#Beginning of Data. Separated by tabs
#Fr	Tx	Ty	Tz	Rx	Ry	Rz	SF
[MASTER]
18 0.000000 0.000000 0.000000 0.001660 0.001660 0.001660 0.000000
19 0.000000 0.000000 0.000000 0.001660 0.001660 0.001660 0.000000
[root]
18 -171.615280 464.219818 1570.395874 -105.889305 -20.183834 -32.110226 1646.540283
19 -170.896912 462.891754 1577.029175 -105.571571 -21.326220 -32.144344 1652.421143
[chest]
18 -84.512650 -34.090519 0.000000 4.583464 -0.635434 -178.264923 91.129311
19 -84.512650 -34.090519 0.000000 2.800076 -0.084709 -177.816940 91.129311
[L_mid_tent01]
18 27.299099 22.179173 -249.918869 -30.925016 52.102932 4.705990 252.381836
19 27.299099 22.179167 -249.918884 -28.396275 52.553356 10.055324 252.381851
[R_mid_tent01]
18 23.228794 24.509907 226.238495 101.826271 -42.685837 152.763718 228.744751
19 23.228794 24.509907 226.238495 133.306900 -40.859879 118.157082 228.744751
[spine01]
18 -0.361383 -0.195265 0.000000 -0.064562 -0.028817 22.531769 0.410763
19 -0.361383 -0.195265 0.000000 -0.058929 -0.025926 22.488396 0.410763
[Bip01_Neck]
18 165.484543 71.581718 0.000119 175.896118 1.177290 24.871183 180.302734
19 165.484543 71.581718 0.000119 175.896118 1.177290 24.871183 180.302734
[L_humerus]
18 -13.983130 -135.272980 -120.471481 -4.961933 65.725479 85.086136 181.680161
19 -13.983130 -135.272980 -120.471481 -5.005731 66.022728 85.041595 181.680161
[R_humerus]
18 -13.983309 -135.273102 125.287651 78.309563 -34.905025 10.119784 184.909012
19 -13.983309 -135.273102 125.287651 77.392776 -36.569592 11.494281 184.909012
[weapon_bone]
18 235.964890 -300.705902 0.000000 0.000000 -89.951546 -128.212341 382.234833
19 235.964890 -300.705902 0.000000 0.000000 -89.951546 -128.212341 382.234833
[Bip01_Head]
18 236.428757 199.007401 -10.368576 -46.956280 6.979343 -61.368767 309.208679
19 235.666504 201.761795 -10.488300 -46.900917 8.141343 -60.252739 310.413483
[eye_left_bone]
18 1.725845 119.975815 -57.383057 0.000000 -90.000000 -99.840431 133.003723
19 1.565398 120.009155 -57.428009 0.000000 -90.000000 -99.840431 133.051208
[eye_right_bone]
18 1.731008 119.973320 71.717499 0.000000 -89.965736 80.156380 139.785522
19 1.570535 120.006691 71.672539 0.000000 -89.965736 80.156380 139.789215
[L_forearm]
18 322.776093 0.000000 -0.000119 0.000422 -0.002309 -110.717422 322.776093
19 322.776093 0.000000 -0.000119 0.000420 -0.002309 -110.597237 322.776093
[L_front_hand]
18 241.149185 -0.042021 -3.300071 -178.667953 -1.835447 -27.422342 241.171753
19 241.149185 -0.042021 -3.300071 -178.667953 -1.835447 -27.422350 241.171753
[L_weapon_bone]
18 156.183838 0.000000 0.000000 0.000014 0.000007 0.000001 156.183838
19 156.183838 0.000000 0.000000 0.000014 0.000007 0.000001 156.183838
[L_front_hand01_01]
18 86.095154 20.947098 -0.655860 -0.366594 -0.477154 75.385574 88.609184
19 86.095154 20.947098 -0.655860 -0.366594 -0.477154 75.385574 88.609184
[L_front_hand02_01]
18 86.935165 -11.437475 24.513514 154.403519 -59.888931 -61.371990 91.046425
19 86.935165 -11.437475 24.513514 154.403519 -59.888931 -61.371990 91.046425
[L_front_hand03_01]
18 86.637497 -14.123976 -20.424902 -153.913849 58.118122 -62.702866 90.126129
19 86.637497 -14.123976 -20.424902 -153.913849 58.118122 -62.702866 90.126129
[L_front_hand01_02]
18 71.020905 -0.000179 0.000030 0.000334 -0.002323 -106.379684 71.020905
19 71.020905 -0.000179 0.000030 0.000334 -0.002323 -106.379684 71.020905
[L_front_hand02_02]
18 71.020927 -0.000119 0.000060 0.000334 -0.002323 -106.379684 71.020927
19 71.020927 -0.000119 0.000060 0.000334 -0.002323 -106.379684 71.020927
[L_front_hand03_02]
18 71.020905 -0.000060 0.000060 0.000334 -0.002323 -106.379684 71.020905
19 71.020905 -0.000060 0.000060 0.000334 -0.002323 -106.379684 71.020905
[R_forearm]
18 322.776428 -0.000060 0.000030 -0.021301 -0.210340 4.419297 322.776428
19 322.776428 -0.000060 0.000030 -0.031193 -0.209472 7.123151 322.776428
[R_front_hand]
18 238.847015 -0.006795 2.210259 79.484497 5.043908 -10.571081 238.857239
19 238.847015 -0.006795 2.210259 78.681847 7.022511 -13.065842 238.857239
[R_weapon_bone]
18 155.664093 0.002503 -0.000030 0.003487 0.001180 -90.988930 155.664078
19 155.664093 0.002503 -0.000030 0.003487 0.001180 -90.988930 155.664078
[R_front_hand01_01]
18 87.624611 14.231146 22.918642 -154.633499 -59.950619 61.746044 91.683487
19 87.624611 14.231146 22.918642 -122.121269 -31.679729 18.702145 91.683487
[R_front_hand02_01]
18 89.356956 14.367283 -19.491137 154.602661 58.302849 63.744389 92.579636
19 89.356956 14.367283 -19.491137 123.409828 30.457672 21.396929 92.579636
[R_front_hand03_01]
18 87.286232 -22.307278 -0.143439 0.162155 -0.423168 -75.767921 90.091743
19 87.286232 -22.307278 -0.143439 -0.147800 -0.427426 -35.767181 90.091743
[R_front_hand01_02]
18 71.020905 0.000060 0.000119 0.001777 0.001534 8.377220 71.020905
19 71.020905 0.000060 0.000119 0.001777 0.001534 8.377220 71.020905
[R_front_hand02_02]
18 71.020844 -0.000030 -0.000119 0.001777 0.001534 8.377220 71.020836
19 71.020844 -0.000030 -0.000119 0.001777 0.001534 8.377220 71.020836
[R_front_hand03_02]
18 71.020905 0.000000 0.000030 0.001777 0.001534 8.377220 71.020905
19 71.020905 0.000000 0.000030 0.001777 0.001534 8.377220 71.020905
[null_rope01_connect]
18 328.732483 0.000000 -0.000238 -161.398895 -63.042728 -86.598610 328.732483
19 328.732483 0.000000 -0.000238 -163.025131 -62.375317 -88.024208 328.732483
[Rope1_Seg01]
18 0.000027 -0.000051 0.000086 1.269288 -18.687542 -75.206566 0.000104
19 0.000031 -0.000050 0.000092 5.491118 -14.809608 -83.447678 0.000109
[Rope1_Seg02]
18 139.999863 -0.000179 0.000000 5.858266 -6.640393 -7.297327 139.999863
19 139.999863 -0.000179 0.000000 7.207714 -5.071951 -7.460520 139.999863
[Rope1_Seg03]
18 139.999924 0.000060 -0.000060 20.920416 -22.822725 -22.420551 139.999924
19 139.999924 0.000060 -0.000060 29.601767 -21.711655 -25.059521 139.999924
[Rope1_Seg04]
18 139.999924 -0.000060 -0.000119 28.110451 -48.312065 -32.723114 139.999924
19 139.999924 -0.000060 -0.000119 43.114227 -55.609749 -41.559464 139.999924
[Rope1_Seg05]
18 139.999832 0.000119 -0.000060 -0.780986 -59.796741 -21.661787 139.999832
19 139.999832 0.000119 -0.000060 -3.873224 -51.857006 -13.721239 139.999832
[Rope1_Seg06]
18 139.999954 0.000119 -0.000060 -5.743969 -11.618485 -5.633282 139.999954
19 139.999954 0.000119 -0.000060 -4.339525 -9.588827 -3.488973 139.999954
[Rope1_Seg07]
18 139.999985 0.000060 0.000000 -2.342824 -3.858023 -2.404274 139.999985
19 139.999985 0.000060 0.000000 -2.013035 -3.703923 -1.670411 139.999985
[Rope1_Seg09]
18 121.602913 0.000119 -0.000089 -89.793175 -1.359789 0.847147 121.602913
19 121.602913 0.000119 -0.000089 -89.793175 -1.359789 0.847147 121.602913
[L_mid_hand01]
18 103.859421 1.038730 8.195221 114.520287 -53.310486 -20.623234 104.187431
19 103.859421 1.038730 8.195221 114.520287 -53.310486 -20.623234 104.187431
[L_mid_hand02]
18 105.572853 -4.139662 -10.864139 -155.067673 38.166626 -52.448818 106.211075
19 105.572853 -4.139662 -10.864139 -155.067673 38.166626 -52.448818 106.211075
[L_mid_hand03]
18 104.641464 17.579376 -3.913581 -10.970130 15.317461 57.626949 106.179977
19 104.641464 17.579376 -3.913581 -10.970130 15.317461 57.626949 106.179977
[null_rope02_connect]
18 328.732849 0.000179 -0.000119 -136.446274 -17.183016 94.390266 328.732849
19 328.732849 0.000179 -0.000119 -112.400833 -8.273456 77.723419 328.732849
[Rope2_Seg01]
18 0.000095 0.000153 0.000043 -25.026695 43.290024 85.877541 0.000185
19 0.000095 0.000153 0.000046 -52.114510 47.977360 48.550148 0.000186
[Rope2_Seg02]
18 139.999741 -0.000060 -0.000119 0.271016 -7.738847 5.919516 139.999756
19 139.999741 -0.000060 -0.000119 -1.444458 -7.887037 9.979497 139.999756
[Rope2_Seg03]
18 140.000107 0.000030 0.000000 0.887733 -8.946329 7.025940 140.000107
19 140.000107 0.000030 0.000000 -0.688601 -13.965068 17.598660 140.000107
[Rope2_Seg04]
18 139.999802 0.000000 -0.000060 2.818441 -12.333168 10.241096 139.999802
19 139.999802 0.000000 -0.000060 7.406679 -20.369614 28.094425 139.999802
[Rope2_Seg05]
18 139.999985 -0.000060 0.000119 3.486617 -6.102988 5.799136 139.999985
19 139.999985 -0.000060 0.000119 9.143896 -4.377190 9.828500 139.999985
[Rope2_Seg06]
18 139.999893 -0.000030 -0.000119 -1.177652 1.799640 -1.698724 139.999893
19 139.999893 -0.000030 -0.000119 -4.547857 2.084127 -4.819861 139.999893
[Rope2_Seg07]
18 139.999893 0.000060 -0.000060 -1.249199 2.200905 -2.016033 139.999893
19 139.999893 0.000060 -0.000060 0.174539 0.585314 -0.056691 139.999893
[Rope2_Seg09]
18 121.338966 0.000089 -0.000060 136.879395 0.546403 -1.506368 121.338966
19 121.338966 0.000089 -0.000060 136.879395 0.546403 -1.506369 121.338966
[R_mid_hand01]
18 104.680779 11.144459 -10.335981 -21.017208 43.585705 63.601063 105.778534
19 104.680779 11.144459 -10.335981 -23.191883 42.640320 60.420353 105.778534
[R_mid_hand02]
18 104.070427 2.443552 8.231699 56.043747 -63.638409 31.643225 104.424065
19 104.070427 2.443552 8.231699 58.651894 -61.526421 28.706045 104.424065
[R_mid_hand03]
18 106.028137 -11.221827 -5.996406 -175.674561 15.224451 -71.231331 106.788818
19 106.028137 -11.221827 -5.996406 -175.005615 15.021963 -68.642914 106.788818
[spine02]
18 129.756927 0.001550 0.000119 -0.363678 -14.811487 -3.637313 129.756927
19 129.756927 0.001550 0.000119 -0.315805 -14.467849 -3.942372 129.756927
[spine03]
18 78.614044 0.081548 -4.899012 1.999917 3.778441 18.048985 78.766579
19 78.614044 0.081543 -4.899012 1.990211 3.783518 17.895109 78.766579
[pelvis]
18 169.435242 0.051022 0.000000 -0.062318 -0.179593 15.268101 169.435257
19 169.435242 0.051022 0.000000 -0.062149 -0.179652 15.159981 169.435257
[null_rope03_connect]
18 -1.257226 -2.466202 137.391083 106.281990 -25.599337 -41.350922 137.418976
19 -1.257226 -2.466202 137.391083 106.161728 -26.180494 -39.535660 137.418976
[null_rope04_connect]
18 -1.259640 -2.480268 -137.844437 106.281990 -25.599337 -41.350922 137.872513
19 -1.259640 -2.480268 -137.844437 106.161728 -26.180494 -39.535660 137.872513
[Rope3_Seg01]
18 0.000000 0.000000 0.000000 21.801819 -16.538626 84.628929 0.000000
19 0.000000 0.000000 0.000000 36.102421 -39.256657 76.953773 0.000000
[Rope3_Seg02]
18 139.999924 -0.000119 0.000060 -3.060865 10.900387 -0.643310 139.999924
19 139.999924 -0.000119 0.000060 -7.153959 13.636129 -3.794506 139.999924
[Rope3_Seg03]
18 139.999924 -0.000119 0.000119 -1.943869 10.857239 -0.188048 139.999924
19 139.999924 -0.000119 0.000119 -5.874742 15.988964 -2.734461 139.999924
[Rope3_Seg04]
18 139.999924 0.000119 0.000000 -1.515368 11.336280 -2.062439 139.999924
19 139.999924 0.000119 0.000000 -4.332230 14.736786 -4.217404 139.999924
[Rope3_Seg05]
18 139.999924 -0.000238 0.000060 0.046134 7.098324 1.515901 139.999924
19 139.999924 -0.000238 0.000060 -0.781943 11.089560 2.166922 139.999924
[Rope3_Seg06]
18 139.999893 -0.000119 -0.000060 0.480906 2.543556 5.520416 139.999893
19 139.999893 -0.000119 -0.000060 1.192229 9.193647 8.296643 139.999893
[Rope3_Seg07]
18 139.999771 0.000060 -0.000119 0.291169 1.517886 5.403752 139.999771
19 139.999771 0.000060 -0.000119 1.580672 7.781978 7.357073 139.999771
[Rope3_Seg08]
18 139.999985 -0.000060 0.000000 0.574508 1.828427 2.721699 139.999985
19 139.999985 -0.000060 0.000000 1.569035 5.038376 3.427913 139.999985
[Rope3_Seg09]
18 90.185997 -0.000179 -0.000060 -155.793640 -1.358041 -0.845965 90.185997
19 90.185997 -0.000179 -0.000060 -85.917267 -1.360299 -0.846398 90.185997
[R_rear_hand01]
18 103.366196 -6.073594 -10.757982 -156.049316 6.070419 -2.795869 104.101845
19 103.366196 -6.073594 -10.757982 -156.049316 6.070419 -2.795869 104.101845
[R_rear_hand02]
18 100.509819 12.039542 -7.992327 -38.708439 1.958052 5.461187 101.543350
19 100.509819 12.039542 -7.992327 -38.708424 1.958050 5.461185 101.543350
[R_rear_hand03]
18 101.539970 5.215704 5.435467 84.307632 -2.361033 4.099039 101.819031
19 101.539970 5.215704 5.435467 84.307625 -2.361032 4.099037 101.819031
[Rope4_Seg01]
18 -0.000014 -0.000033 -0.000153 -49.695885 -6.665792 -2.668698 0.000157
19 -0.000013 -0.000031 -0.000153 -55.391140 -5.668014 -0.348011 0.000156
[Rope4_Seg02]
18 139.999985 0.000060 0.000119 10.546624 -4.936811 -9.850565 139.999985
19 139.999985 0.000060 0.000119 4.673559 -4.705909 -5.374060 139.999985
[Rope4_Seg03]
18 139.999924 0.000000 -0.000238 11.017449 -13.427593 -18.786108 139.999924
19 139.999924 0.000000 -0.000238 8.381910 -13.543662 -14.886517 139.999924
[Rope4_Seg04]
18 139.999985 0.000000 0.000119 11.973431 -20.582226 -34.392166 139.999985
19 139.999985 0.000000 0.000119 19.371376 -30.881222 -48.275280 139.999985
[Rope4_Seg05]
18 139.999802 -0.000060 -0.000119 1.031892 -14.708208 -9.357265 139.999802
19 139.999802 -0.000060 -0.000119 23.437666 -60.270954 23.424208 139.999802
[Rope4_Seg06]
18 139.999924 0.000000 0.000060 25.892977 -53.515678 21.691460 139.999924
19 139.999924 0.000000 0.000060 33.283134 -18.904440 36.778507 139.999924
[Rope4_Seg07]
18 139.999802 0.000000 0.000000 38.567448 -28.224253 41.871853 139.999802
19 139.999802 0.000000 0.000000 4.881466 0.082902 7.743231 139.999802
[Rope4_Seg08]
18 139.999924 0.000000 0.000119 3.538674 0.849682 8.675643 139.999924
19 139.999924 0.000000 0.000119 0.277593 0.310473 3.232384 139.999924
[Rope4_Seg09]
18 90.185791 0.000060 0.000060 -135.617828 2.228885 0.850567 90.185791
19 90.185791 0.000060 0.000060 -135.617828 2.228885 0.850567 90.185791
[L_rear_hand01]
18 101.696655 -8.392275 -7.654577 -19.915020 -33.950905 119.950104 102.329041
19 101.696655 -8.392275 -7.654577 -19.915020 -33.950905 119.950104 102.329041
[L_rear_hand02]
18 102.726799 -1.568258 5.773216 77.862221 61.878510 165.399200 102.900848
19 102.726799 -1.568258 5.773216 77.862221 61.878510 165.399200 102.900848
[L_rear_hand03]
18 104.552910 9.721220 -10.420293 -173.099182 -23.740307 -117.327896 105.519653
19 104.552910 9.721220 -10.420293 -173.099182 -23.740307 -117.327896 105.519653
